#Produced by Art of Illusion 2.9.2, Tue Jan 08 11:20:12 PST 2013
mtllib ball.mtl
g Sphere_1
usem organic
v 0.05319 -0.01254 -0.56719
v -0.97299 -0.12614 0.02873
v -1.02277 0.49563 0.06152
v 0.0034 0.60923 -0.5344
v 0.35277 -0.01573 -0.05192
v -0.6734 -0.12933 0.544
v -0.72319 0.49244 0.57679
v 0.30299 0.60604 -0.01913
v -0.17846 -0.35182 -0.43461
v -0.69155 -0.40862 -0.13665
v -0.79112 0.83491 -0.07106
v -0.27803 0.89171 -0.36902
v 0.12112 -0.35501 0.08066
v -0.39197 -0.41181 0.37862
v -0.49154 0.83173 0.44421
v 0.02155 0.88853 0.14625
v -0.35314 -0.03935 -0.67585
v -0.86623 -0.09615 -0.37789
v -0.91602 0.52562 -0.3451
v -0.40293 0.58242 -0.64306
v 0.24602 -0.04572 0.3547
v -0.26707 -0.10252 0.65266
v -0.31686 0.51925 0.68545
v 0.19623 0.57605 0.38749
v 0.2689 0.01281 -0.34772
v -0.89223 -0.11573 0.32658
v 0.22223 0.59564 -0.31698
v -0.9389 0.4671 0.35732
v -0.41908 -0.4621 -0.27381
v -0.53175 0.94499 -0.1996
v -0.13825 -0.46508 0.2092
v -0.25092 0.942 0.28341
v 0.10516 0.30572 -0.57385
v -1.05598 0.17718 0.10044
v 0.38598 0.30273 -0.09084
v -0.77516 0.17419 0.58345
v 0.15247 -0.24932 -0.28164
v -0.73623 -0.34771 0.23444
v 0.06623 0.82761 -0.22484
v -0.82247 0.72923 0.29124
v -0.55133 -0.29576 -0.46984
v -0.63756 0.78118 -0.41304
v -0.03244 -0.30128 0.42264
v -0.11867 0.77566 0.47944
v -0.1501 0.2919 -0.69948
v -1.03879 0.19352 -0.1834
v 0.36879 0.28638 0.193
v -0.5199 0.188 0.70908
v -0.03818 -0.43697 -0.17196
v -0.51914 -0.49021 0.10735
v -0.15086 0.97011 -0.09775
v -0.63182 0.91687 0.18156
v -0.65065 -0.04786 -0.59361
v -0.69732 0.53497 -0.56287
v 0.02732 -0.05507 0.57247
v -0.01935 0.52776 0.60321
v -0.4335 0.27018 -0.71789
v -0.91446 0.21694 -0.43859
v 0.24446 0.26297 0.44819
v -0.2365 0.20972 0.72749
v 0.2934 0.30952 -0.36013
v -0.9634 0.17039 0.36972
v -0.27402 -0.52156 -0.03536
v -0.39598 1.00146 0.04496
v -0.70191 0.24386 -0.62628
v 0.03191 0.23605 0.63588
vn 0.50201 -0.33657 -0.79668
vn -0.87244 -0.48872 0.00148
vn -0.9389 0.34122 0.04525
vn 0.43556 0.49337 -0.75291
vn 0.9389 -0.34122 -0.04525
vn -0.43556 -0.49337 0.75291
vn -0.50201 0.33657 0.79668
vn 0.87244 0.48872 -0.00148
vn 0.22047 -0.73284 -0.64369
vn -0.54004 -0.81703 -0.20205
vn -0.66452 0.73756 -0.12006
vn 0.09599 0.82175 -0.5617
vn 0.66452 -0.73756 0.12006
vn -0.09599 -0.82175 0.5617
vn -0.22047 0.73284 0.64369
vn 0.54004 0.81703 0.20205
vn 0.00609 -0.36928 -0.9293
vn -0.74215 -0.45212 -0.49478
vn -0.80861 0.37782 -0.45101
vn -0.06036 0.46065 -0.88553
vn 0.80861 -0.37782 0.45101
vn 0.06036 -0.46065 0.88553
vn -0.00609 0.36928 0.9293
vn 0.74215 0.45212 0.49478
vn 0.83085 -0.27333 -0.48475
vn -0.77286 -0.45087 0.44655
vn 0.77286 0.45087 -0.44655
vn -0.83085 0.27333 0.48475
vn -0.12305 -0.91418 -0.38617
vn -0.26979 0.91836 -0.28952
vn 0.26979 -0.91836 0.28952
vn 0.12305 0.91418 0.38617
vn 0.60722 0.09026 -0.78939
vn -0.9869 -0.08622 0.13634
vn 0.9869 0.08622 -0.13634
vn -0.60722 -0.09026 0.78939
vn 0.67657 -0.62007 -0.39719
vn -0.56625 -0.75766 0.32453
vn 0.56625 0.75766 -0.32453
vn -0.67657 0.62007 0.39719
vn -0.30767 -0.68501 -0.66039
vn -0.41799 0.69273 -0.58772
vn 0.41799 -0.69273 0.58772
vn 0.30767 0.68501 0.66039
vn 0.25329 0.07116 -0.96477
vn -0.9641 -0.0636 -0.25781
vn 0.9641 0.0636 0.25781
vn -0.25329 -0.07116 0.96477
vn 0.40978 -0.87903 -0.24369
vn -0.26304 -0.95351 0.14704
vn 0.26304 0.95351 -0.14704
vn -0.40978 0.87903 0.24369
vn -0.43919 -0.35712 -0.82437
vn -0.49718 0.36708 -0.78617
vn 0.49718 -0.36708 0.78617
vn 0.43919 0.35712 0.82437
vn -0.14025 0.04094 -0.98927
vn -0.79053 -0.03104 -0.61164
vn 0.79053 0.03104 0.61164
vn 0.14025 -0.04094 0.98927
vn 0.86083 0.0953 -0.4999
vn -0.86083 -0.0953 0.4999
vn 0.07971 -0.99543 -0.0525
vn -0.07971 0.99543 0.0525
vn -0.50262 0.00535 -0.86449
vn 0.50262 -0.00535 0.86449
vt 0.90825 0.70412
vt 0.09175 0.70412
vt 0.09175 0.29588
vt 0.90825 0.29588
vt 0.90825 0.70412
vt 0.09175 0.70412
vt 0.09175 0.29588
vt 0.90825 0.29588
vt 0.70412 0.90825
vt 0.29588 0.90825
vt 0.29588 0.09175
vt 0.70412 0.09175
vt 0.70412 0.90825
vt 0.29588 0.90825
vt 0.29588 0.09175
vt 0.70412 0.09175
vt 0.70412 0.70412
vt 0.29588 0.70412
vt 0.29588 0.29588
vt 0.70412 0.29588
vt 0.70412 0.70412
vt 0.29588 0.70412
vt 0.29588 0.29588
vt 0.70412 0.29588
vt 0.96194 0.69134
vt 0.03806 0.69134
vt 0.96194 0.30866
vt 0.03806 0.30866
vt 0.5 0.96194
vt 0.5 0.03806
vt 0.5 0.96194
vt 0.5 0.03806
vt 0.96194 0.5
vt 0.03806 0.5
vt 0.96194 0.5
vt 0.03806 0.5
vt 0.85355 0.85355
vt 0.14645 0.85355
vt 0.85355 0.14645
vt 0.14645 0.14645
vt 0.5 0.85355
vt 0.5 0.14645
vt 0.5 0.85355
vt 0.5 0.14645
vt 0.85355 0.5
vt 0.14645 0.5
vt 0.85355 0.5
vt 0.14645 0.5
vt 0.69134 0.96194
vt 0.30866 0.96194
vt 0.69134 0.03806
vt 0.30866 0.03806
vt 0.5 0.69134
vt 0.5 0.30866
vt 0.5 0.69134
vt 0.5 0.30866
vt 0.69134 0.5
vt 0.30866 0.5
vt 0.69134 0.5
vt 0.30866 0.5
vt 1 0.5
vt 0 0.5
vt 0.5 1
vt 0.5 0
vt 0.5 0.5
vt 0.5 0.5
f 61/61/61 25/25/25 33/33/33
f 25/25/25 37/37/37 1/1/1
f 25/25/25 1/1/1 33/33/33
f 33/33/33 1/1/1 45/45/45
f 37/37/37 49/49/49 9/9/9
f 37/37/37 9/9/9 1/1/1
f 1/1/1 9/9/9 17/17/17
f 1/1/1 17/17/17 45/45/45
f 45/45/45 17/17/17 57/57/57
f 49/49/49 63/63/63 29/29/29
f 49/49/49 29/29/29 9/9/9
f 9/9/9 29/29/29 41/41/41
f 9/9/9 41/41/41 17/17/17
f 17/17/17 41/41/41 53/53/53
f 17/17/17 53/53/53 57/57/57
f 57/57/57 53/53/53 65/65/65
f 62/62/62 34/34/34 26/26/26
f 26/26/26 2/2/2 38/38/38
f 26/26/26 34/34/34 2/2/2
f 34/34/34 46/46/46 2/2/2
f 38/38/38 10/10/10 50/50/50
f 38/38/38 2/2/2 10/10/10
f 2/2/2 18/18/18 10/10/10
f 2/2/2 46/46/46 18/18/18
f 46/46/46 58/58/58 18/18/18
f 50/50/50 29/29/29 63/63/63
f 50/50/50 10/10/10 29/29/29
f 10/10/10 41/41/41 29/29/29
f 10/10/10 18/18/18 41/41/41
f 18/18/18 53/53/53 41/41/41
f 18/18/18 58/58/58 53/53/53
f 58/58/58 65/65/65 53/53/53
f 62/62/62 28/28/28 34/34/34
f 28/28/28 40/40/40 3/3/3
f 28/28/28 3/3/3 34/34/34
f 34/34/34 3/3/3 46/46/46
f 40/40/40 52/52/52 11/11/11
f 40/40/40 11/11/11 3/3/3
f 3/3/3 11/11/11 19/19/19
f 3/3/3 19/19/19 46/46/46
f 46/46/46 19/19/19 58/58/58
f 52/52/52 64/64/64 30/30/30
f 52/52/52 30/30/30 11/11/11
f 11/11/11 30/30/30 42/42/42
f 11/11/11 42/42/42 19/19/19
f 19/19/19 42/42/42 54/54/54
f 19/19/19 54/54/54 58/58/58
f 58/58/58 54/54/54 65/65/65
f 61/61/61 33/33/33 27/27/27
f 27/27/27 4/4/4 39/39/39
f 27/27/27 33/33/33 4/4/4
f 33/33/33 45/45/45 4/4/4
f 39/39/39 12/12/12 51/51/51
f 39/39/39 4/4/4 12/12/12
f 4/4/4 20/20/20 12/12/12
f 4/4/4 45/45/45 20/20/20
f 45/45/45 57/57/57 20/20/20
f 51/51/51 30/30/30 64/64/64
f 51/51/51 12/12/12 30/30/30
f 12/12/12 42/42/42 30/30/30
f 12/12/12 20/20/20 42/42/42
f 20/20/20 54/54/54 42/42/42
f 20/20/20 57/57/57 54/54/54
f 57/57/57 65/65/65 54/54/54
f 61/61/61 35/35/35 25/25/25
f 25/25/25 5/5/5 37/37/37
f 25/25/25 35/35/35 5/5/5
f 35/35/35 47/47/47 5/5/5
f 37/37/37 13/13/13 49/49/49
f 37/37/37 5/5/5 13/13/13
f 5/5/5 21/21/21 13/13/13
f 5/5/5 47/47/47 21/21/21
f 47/47/47 59/59/59 21/21/21
f 49/49/49 31/31/31 63/63/63
f 49/49/49 13/13/13 31/31/31
f 13/13/13 43/43/43 31/31/31
f 13/13/13 21/21/21 43/43/43
f 21/21/21 55/55/55 43/43/43
f 21/21/21 59/59/59 55/55/55
f 59/59/59 66/66/66 55/55/55
f 62/62/62 26/26/26 36/36/36
f 26/26/26 38/38/38 6/6/6
f 26/26/26 6/6/6 36/36/36
f 36/36/36 6/6/6 48/48/48
f 38/38/38 50/50/50 14/14/14
f 38/38/38 14/14/14 6/6/6
f 6/6/6 14/14/14 22/22/22
f 6/6/6 22/22/22 48/48/48
f 48/48/48 22/22/22 60/60/60
f 50/50/50 63/63/63 31/31/31
f 50/50/50 31/31/31 14/14/14
f 14/14/14 31/31/31 43/43/43
f 14/14/14 43/43/43 22/22/22
f 22/22/22 43/43/43 55/55/55
f 22/22/22 55/55/55 60/60/60
f 60/60/60 55/55/55 66/66/66
f 62/62/62 36/36/36 28/28/28
f 28/28/28 7/7/7 40/40/40
f 28/28/28 36/36/36 7/7/7
f 36/36/36 48/48/48 7/7/7
f 40/40/40 15/15/15 52/52/52
f 40/40/40 7/7/7 15/15/15
f 7/7/7 23/23/23 15/15/15
f 7/7/7 48/48/48 23/23/23
f 48/48/48 60/60/60 23/23/23
f 52/52/52 32/32/32 64/64/64
f 52/52/52 15/15/15 32/32/32
f 15/15/15 44/44/44 32/32/32
f 15/15/15 23/23/23 44/44/44
f 23/23/23 56/56/56 44/44/44
f 23/23/23 60/60/60 56/56/56
f 60/60/60 66/66/66 56/56/56
f 61/61/61 27/27/27 35/35/35
f 27/27/27 39/39/39 8/8/8
f 27/27/27 8/8/8 35/35/35
f 35/35/35 8/8/8 47/47/47
f 39/39/39 51/51/51 16/16/16
f 39/39/39 16/16/16 8/8/8
f 8/8/8 16/16/16 24/24/24
f 8/8/8 24/24/24 47/47/47
f 47/47/47 24/24/24 59/59/59
f 51/51/51 64/64/64 32/32/32
f 51/51/51 32/32/32 16/16/16
f 16/16/16 32/32/32 44/44/44
f 16/16/16 44/44/44 24/24/24
f 24/24/24 44/44/44 56/56/56
f 24/24/24 56/56/56 59/59/59
f 59/59/59 56/56/56 66/66/66
