#Produced by Art of Illusion 2.9.2, Fri Jan 11 09:47:58 PST 2013
mtllib multitest.mtl
g Cube_1
usemtl brickwall
v -1.24772 0.5528 0.22597
v -0.63461 0.5528 -0.13208
v -0.91199 0.95264 -0.60705
v -1.5251 0.95264 -0.249
v -1.04608 1.10283 0.57124
v -0.43297 1.10283 0.21319
v -0.71036 1.50267 -0.26178
v -1.32346 1.50267 0.09627
v -0.84035 0.82782 0.21958
v -0.67248 1.02774 -0.19693
v -1.11773 1.22765 -0.25539
v -1.28559 1.02774 0.16112
v -1.07985 0.75272 -0.19054
v -0.87822 1.30275 0.15473
vn 1 0 0
vn -0.29652 -0.80887 -0.50775
vn -0.29652 -0.80887 -0.50775
vn -0.29652 -0.80887 -0.50775
vn -0.29652 -0.80887 -0.50775
vn 0.86353 0 -0.5043
vn 0.86353 0 -0.5043
vn 0.86353 0 -0.5043
vn 0.86353 0 -0.5043
vn 0.40791 -0.58799 0.69848
vn 0.40791 -0.58799 0.69848
vn 0.40791 -0.58799 0.69848
vn 0.40791 -0.58799 0.69848
vn -0.86353 -0 0.5043
vn -0.86353 -0 0.5043
vn -0.86353 -0 0.5043
vn -0.86353 -0 0.5043
vn 0.29652 0.80887 0.50775
vn 0.29652 0.80887 0.50775
vn 0.29652 0.80887 0.50775
vn 0.29652 0.80887 0.50775
vn -0.40791 0.58799 -0.69848
vn -0.40791 0.58799 -0.69848
vn -0.40791 0.58799 -0.69848
vn -0.40791 0.58799 -0.69848
vt 0 0
vt 1 0
vt 1 0
vt 0 0
vt 0 1
vt 1 1
vt 1 1
vt 0 1
vt 0.5 0.5
vt 1 0.5
vt 0.5 0.5
vt 0 0.5
vt 0.5 0
vt 0.5 1
f 2/2/2 1/1/2 13/13/2
f 3/3/3 2/2/3 13/13/3
f 4/4/4 3/3/4 13/13/4
f 1/1/5 4/4/5 13/13/5
f 2/2/6 3/3/6 10/10/6
f 3/3/7 7/7/7 10/10/7
f 7/7/8 6/6/8 10/10/8
f 6/6/9 2/2/9 10/10/9
f 1/1/10 2/2/10 9/9/10
f 2/2/11 6/6/11 9/9/11
f 6/6/12 5/5/12 9/9/12
f 5/5/13 1/1/13 9/9/13
f 4/4/14 1/1/14 12/12/14
f 1/1/15 5/5/15 12/12/15
f 5/5/16 8/8/16 12/12/16
f 8/8/17 4/4/17 12/12/17
f 5/5/18 6/6/18 14/14/18
f 6/6/19 7/7/19 14/14/19
f 7/7/20 8/8/20 14/14/20
f 8/8/21 5/5/21 14/14/21
f 3/3/22 4/4/22 11/11/22
f 4/4/23 8/8/23 11/11/23
f 8/8/24 7/7/24 11/11/24
f 7/7/25 3/3/25 11/11/25
g Cube_2
usemtl crate
v 0.98241 0.40516 0.32237
v 1.70096 0.52867 0.01819
v 1.39759 0.77848 -0.59701
v 0.67904 0.65496 -0.29283
v 0.98241 1.08152 0.59701
v 1.70096 1.20504 0.29283
v 1.39759 1.45484 -0.32237
v 0.67904 1.33133 -0.01819
v 1.34168 0.8051 0.3076
v 1.54928 0.99176 -0.15209
v 1.03832 1.0549 -0.3076
v 0.83072 0.86824 0.15209
v 1.19 0.59182 -0.13732
v 1.19 1.26818 0.13732
vn 1 0 0
vn 0 -0.92653 -0.37622
vn 0 -0.92653 -0.37622
vn 0 -0.92653 -0.37622
vn 0 -0.92653 -0.37622
vn 0.90956 0.15635 -0.38504
vn 0.90956 0.15635 -0.38504
vn 0.90956 0.15635 -0.38504
vn 0.90956 0.15635 -0.38504
vn 0.41557 -0.3422 0.84273
vn 0.41557 -0.3422 0.84273
vn 0.41557 -0.3422 0.84273
vn 0.41557 -0.3422 0.84273
vn -0.90956 -0.15635 0.38504
vn -0.90956 -0.15635 0.38504
vn -0.90956 -0.15635 0.38504
vn -0.90956 -0.15635 0.38504
vn -0 0.92653 0.37622
vn -0 0.92653 0.37622
vn -0 0.92653 0.37622
vn -0 0.92653 0.37622
vn -0.41557 0.3422 -0.84273
vn -0.41557 0.3422 -0.84273
vn -0.41557 0.3422 -0.84273
vn -0.41557 0.3422 -0.84273
vt 0 0
vt 1 0
vt 1 0
vt 0 0
vt 0 1
vt 1 1
vt 1 1
vt 0 1
vt 0.5 0.5
vt 1 0.5
vt 0.5 0.5
vt 0 0.5
vt 0.5 0
vt 0.5 1
f 16/16/27 15/15/27 27/27/27
f 17/17/28 16/16/28 27/27/28
f 18/18/29 17/17/29 27/27/29
f 15/15/30 18/18/30 27/27/30
f 16/16/31 17/17/31 24/24/31
f 17/17/32 21/21/32 24/24/32
f 21/21/33 20/20/33 24/24/33
f 20/20/34 16/16/34 24/24/34
f 15/15/35 16/16/35 23/23/35
f 16/16/36 20/20/36 23/23/36
f 20/20/37 19/19/37 23/23/37
f 19/19/38 15/15/38 23/23/38
f 18/18/39 15/15/39 26/26/39
f 15/15/40 19/19/40 26/26/40
f 19/19/41 22/22/41 26/26/41
f 22/22/42 18/18/42 26/26/42
f 19/19/43 20/20/43 28/28/43
f 20/20/44 21/21/44 28/28/44
f 21/21/45 22/22/45 28/28/45
f 22/22/46 19/19/46 28/28/46
f 17/17/47 18/18/47 25/25/47
f 18/18/48 22/22/48 25/25/48
f 22/22/49 21/21/49 25/25/49
f 21/21/50 17/17/50 25/25/50
g Cube_3
usemtl red_grid
v -0.63608 -1.57405 0.36
v -0.2181 -0.98779 0.36
v -0.2181 -0.98779 -0.36
v -0.63608 -1.57405 -0.36
v -1.3119 -1.09221 0.36
v -0.89392 -0.50595 0.36
v -0.89392 -0.50595 -0.36
v -1.3119 -1.09221 -0.36
v -0.765 -1.04 0.36
v -0.55601 -0.74687 0
v -0.765 -1.04 -0.36
v -0.97399 -1.33313 0
v -0.42709 -1.28092 0
v -1.10291 -0.79908 0
vn 1 0 0
vn 0.81424 -0.58053 0
vn 0.81424 -0.58053 0
vn 0.81424 -0.58053 0
vn 0.81424 -0.58053 0
vn 0.58053 0.81424 0
vn 0.58053 0.81424 0
vn 0.58053 0.81424 0
vn 0.58053 0.81424 0
vn 0 0 1
vn 0 0 1
vn 0 0 1
vn 0 0 1
vn -0.58053 -0.81424 0
vn -0.58053 -0.81424 0
vn -0.58053 -0.81424 0
vn -0.58053 -0.81424 0
vn -0.81424 0.58053 0
vn -0.81424 0.58053 0
vn -0.81424 0.58053 0
vn -0.81424 0.58053 0
vn 0 0 -1
vn 0 0 -1
vn 0 0 -1
vn 0 0 -1
vt 0 0
vt 1 0
vt 1 0
vt 0 0
vt 0 1
vt 1 1
vt 1 1
vt 0 1
vt 0.5 0.5
vt 1 0.5
vt 0.5 0.5
vt 0 0.5
vt 0.5 0
vt 0.5 1
f 30/30/52 29/29/52 41/41/52
f 31/31/53 30/30/53 41/41/53
f 32/32/54 31/31/54 41/41/54
f 29/29/55 32/32/55 41/41/55
f 30/30/56 31/31/56 38/38/56
f 31/31/57 35/35/57 38/38/57
f 35/35/58 34/34/58 38/38/58
f 34/34/59 30/30/59 38/38/59
f 29/29/60 30/30/60 37/37/60
f 30/30/61 34/34/61 37/37/61
f 34/34/62 33/33/62 37/37/62
f 33/33/63 29/29/63 37/37/63
f 32/32/64 29/29/64 40/40/64
f 29/29/65 33/33/65 40/40/65
f 33/33/66 36/36/66 40/40/66
f 36/36/67 32/32/67 40/40/67
f 33/33/68 34/34/68 42/42/68
f 34/34/69 35/35/69 42/42/69
f 35/35/70 36/36/70 42/42/70
f 36/36/71 33/33/71 42/42/71
f 31/31/72 32/32/72 39/39/72
f 32/32/73 36/36/73 39/39/73
f 36/36/74 35/35/74 39/39/74
f 35/35/75 31/31/75 39/39/75
g Cube_4
usemtl organic
v 1.59583 -1.63877 0.365
v 1.97785 -0.97691 0.365
v 1.97785 -0.97691 -0.385
v 1.59583 -1.63877 -0.385
v 0.85912 -1.21354 0.365
v 1.24115 -0.55169 0.365
v 1.24115 -0.55169 -0.385
v 0.85912 -1.21354 -0.385
v 1.41849 -1.09523 0.365
v 1.6095 -0.7643 -0.01
v 1.41849 -1.09523 -0.385
v 1.22747 -1.42616 -0.01
v 1.78684 -1.30784 -0.01
v 1.05013 -0.88261 -0.01
vn 1 0 0
vn 0.86608 -0.4999 0
vn 0.86608 -0.4999 0
vn 0.86608 -0.4999 0
vn 0.86608 -0.4999 0
vn 0.4999 0.86608 0
vn 0.4999 0.86608 0
vn 0.4999 0.86608 0
vn 0.4999 0.86608 0
vn 0 0 1
vn 0 0 1
vn 0 0 1
vn 0 0 1
vn -0.4999 -0.86608 0
vn -0.4999 -0.86608 0
vn -0.4999 -0.86608 0
vn -0.4999 -0.86608 0
vn -0.86608 0.4999 0
vn -0.86608 0.4999 0
vn -0.86608 0.4999 0
vn -0.86608 0.4999 0
vn 0 0 -1
vn 0 0 -1
vn 0 0 -1
vn 0 0 -1
vt 0 0
vt 1 0
vt 1 0
vt 0 0
vt 0 1
vt 1 1
vt 1 1
vt 0 1
vt 0.5 0.5
vt 1 0.5
vt 0.5 0.5
vt 0 0.5
vt 0.5 0
vt 0.5 1
f 44/44/77 43/43/77 55/55/77
f 45/45/78 44/44/78 55/55/78
f 46/46/79 45/45/79 55/55/79
f 43/43/80 46/46/80 55/55/80
f 44/44/81 45/45/81 52/52/81
f 45/45/82 49/49/82 52/52/82
f 49/49/83 48/48/83 52/52/83
f 48/48/84 44/44/84 52/52/84
f 43/43/85 44/44/85 51/51/85
f 44/44/86 48/48/86 51/51/86
f 48/48/87 47/47/87 51/51/87
f 47/47/88 43/43/88 51/51/88
f 46/46/89 43/43/89 54/54/89
f 43/43/90 47/47/90 54/54/90
f 47/47/91 50/50/91 54/54/91
f 50/50/92 46/46/92 54/54/92
f 47/47/93 48/48/93 56/56/93
f 48/48/94 49/49/94 56/56/94
f 49/49/95 50/50/95 56/56/95
f 50/50/96 47/47/96 56/56/96
f 45/45/97 46/46/97 53/53/97
f 46/46/98 50/50/98 53/53/98
f 50/50/99 49/49/99 53/53/99
f 49/49/100 45/45/100 53/53/100
g Cube_4_1
usemtl flat_blue
v -2.79586 -1.07466 0.54748
v -3.51034 -1.33621 0.476
v -3.73279 -0.66226 0.23351
v -3.01831 -0.40071 0.30499
v -2.63024 -1.3082 -0.25351
v -3.34472 -1.56975 -0.32499
v -3.56717 -0.89579 -0.56748
v -2.85269 -0.63425 -0.496
v -3.07029 -1.32221 0.11125
v -3.53876 -1.116 -0.04574
v -3.29274 -0.64825 -0.13125
v -2.82427 -0.85446 0.02574
v -3.26432 -0.86846 0.3905
v -3.0987 -1.102 -0.4105
vn 1 0 0
vn -0.1947 0.27455 0.94165
vn -0.1947 0.27455 0.94165
vn -0.1947 0.27455 0.94165
vn -0.1947 0.27455 0.94165
vn -0.93494 -0.34225 -0.09353
vn -0.93494 -0.34225 -0.09353
vn -0.93494 -0.34225 -0.09353
vn -0.93494 -0.34225 -0.09353
vn 0.2966 -0.8986 0.32332
vn 0.2966 -0.8986 0.32332
vn 0.2966 -0.8986 0.32332
vn 0.2966 -0.8986 0.32332
vn 0.93494 0.34225 0.09353
vn 0.93494 0.34225 0.09353
vn 0.93494 0.34225 0.09353
vn 0.93494 0.34225 0.09353
vn 0.1947 -0.27455 -0.94165
vn 0.1947 -0.27455 -0.94165
vn 0.1947 -0.27455 -0.94165
vn 0.1947 -0.27455 -0.94165
vn -0.2966 0.8986 -0.32332
vn -0.2966 0.8986 -0.32332
vn -0.2966 0.8986 -0.32332
vn -0.2966 0.8986 -0.32332
vt 0 0
vt 1 0
vt 1 0
vt 0 0
vt 0 1
vt 1 1
vt 1 1
vt 0 1
vt 0.5 0.5
vt 1 0.5
vt 0.5 0.5
vt 0 0.5
vt 0.5 0
vt 0.5 1
f 58/58/102 57/57/102 69/69/102
f 59/59/103 58/58/103 69/69/103
f 60/60/104 59/59/104 69/69/104
f 57/57/105 60/60/105 69/69/105
f 58/58/106 59/59/106 66/66/106
f 59/59/107 63/63/107 66/66/107
f 63/63/108 62/62/108 66/66/108
f 62/62/109 58/58/109 66/66/109
f 57/57/110 58/58/110 65/65/110
f 58/58/111 62/62/111 65/65/111
f 62/62/112 61/61/112 65/65/112
f 61/61/113 57/57/113 65/65/113
f 60/60/114 57/57/114 68/68/114
f 57/57/115 61/61/115 68/68/115
f 61/61/116 64/64/116 68/68/116
f 64/64/117 60/60/117 68/68/117
f 61/61/118 62/62/118 70/70/118
f 62/62/119 63/63/119 70/70/119
f 63/63/120 64/64/120 70/70/120
f 64/64/121 61/61/121 70/70/121
f 59/59/122 60/60/122 67/67/122
f 60/60/123 64/64/123 67/67/123
f 64/64/124 63/63/124 67/67/124
f 63/63/125 59/59/125 67/67/125
g Cube_3_1
usemtl tex1
v -4.95976 -1.01331 0.51016
v -5.64325 -1.23966 0.50804
v -5.8568 -0.59267 0.27525
v -5.17331 -0.36631 0.27737
v -4.8732 -1.26733 -0.27525
v -5.55669 -1.49369 -0.27737
v -5.77024 -0.84669 -0.51016
v -5.08675 -0.62034 -0.50804
v -5.25822 -1.2535 0.1164
v -5.70674 -1.04318 -0.00106
v -5.47178 -0.6065 -0.1164
v -5.02326 -0.81682 0.00106
v -5.40828 -0.80299 0.39271
v -5.32172 -1.05701 -0.39271
vn 1 0 0
vn -0.10429 0.30605 0.94628
vn -0.10429 0.30605 0.94628
vn -0.10429 0.30605 0.94628
vn -0.10429 0.30605 0.94628
vn -0.94929 -0.31439 -0.00294
vn -0.94929 -0.31439 -0.00294
vn -0.94929 -0.31439 -0.00294
vn -0.94929 -0.31439 -0.00294
vn 0.2966 -0.8986 0.32332
vn 0.2966 -0.8986 0.32332
vn 0.2966 -0.8986 0.32332
vn 0.2966 -0.8986 0.32332
vn 0.94929 0.31439 0.00294
vn 0.94929 0.31439 0.00294
vn 0.94929 0.31439 0.00294
vn 0.94929 0.31439 0.00294
vn 0.10429 -0.30605 -0.94628
vn 0.10429 -0.30605 -0.94628
vn 0.10429 -0.30605 -0.94628
vn 0.10429 -0.30605 -0.94628
vn -0.2966 0.8986 -0.32332
vn -0.2966 0.8986 -0.32332
vn -0.2966 0.8986 -0.32332
vn -0.2966 0.8986 -0.32332
vt 0 0
vt 1 0
vt 1 0
vt 0 0
vt 0 1
vt 1 1
vt 1 1
vt 0 1
vt 0.5 0.5
vt 1 0.5
vt 0.5 0.5
vt 0 0.5
vt 0.5 0
vt 0.5 1
f 72/72/127 71/71/127 83/83/127
f 73/73/128 72/72/128 83/83/128
f 74/74/129 73/73/129 83/83/129
f 71/71/130 74/74/130 83/83/130
f 72/72/131 73/73/131 80/80/131
f 73/73/132 77/77/132 80/80/132
f 77/77/133 76/76/133 80/80/133
f 76/76/134 72/72/134 80/80/134
f 71/71/135 72/72/135 79/79/135
f 72/72/136 76/76/136 79/79/136
f 76/76/137 75/75/137 79/79/137
f 75/75/138 71/71/138 79/79/138
f 74/74/139 71/71/139 82/82/139
f 71/71/140 75/75/140 82/82/140
f 75/75/141 78/78/141 82/82/141
f 78/78/142 74/74/142 82/82/142
f 75/75/143 76/76/143 84/84/143
f 76/76/144 77/77/144 84/84/144
f 77/77/145 78/78/145 84/84/145
f 78/78/146 75/75/146 84/84/146
f 73/73/147 74/74/147 81/81/147
f 74/74/148 78/78/148 81/81/148
f 78/78/149 77/77/149 81/81/149
f 77/77/150 73/73/150 81/81/150
g Cube_2_1
usemtl grass
v -2.80845 0.96408 0.23421
v -3.44367 1.23177 0.62013
v -3.61116 1.65603 0.05017
v -2.97594 1.38833 -0.33575
v -3.20884 0.42397 -0.05017
v -3.84406 0.69167 0.33575
v -4.01155 1.11592 -0.23421
v -3.37633 0.84823 -0.62013
v -3.32626 0.82787 0.28498
v -3.72761 1.17385 0.19296
v -3.49374 1.25213 -0.28498
v -3.09239 0.90615 -0.19296
v -3.20981 1.31005 0.14219
v -3.61019 0.76995 -0.14219
vn 1 0 0
vn 0.54848 0.73987 0.38956
vn 0.54848 0.73987 0.38956
vn 0.54848 0.73987 0.38956
vn 0.54848 0.73987 0.38956
vn -0.80407 0.33886 0.48851
vn -0.80407 0.33886 0.48851
vn -0.80407 0.33886 0.48851
vn -0.80407 0.33886 0.48851
vn 0.22943 -0.58117 0.78077
vn 0.22943 -0.58117 0.78077
vn 0.22943 -0.58117 0.78077
vn 0.22943 -0.58117 0.78077
vn 0.80407 -0.33886 -0.48851
vn 0.80407 -0.33886 -0.48851
vn 0.80407 -0.33886 -0.48851
vn 0.80407 -0.33886 -0.48851
vn -0.54848 -0.73987 -0.38956
vn -0.54848 -0.73987 -0.38956
vn -0.54848 -0.73987 -0.38956
vn -0.54848 -0.73987 -0.38956
vn -0.22943 0.58117 -0.78077
vn -0.22943 0.58117 -0.78077
vn -0.22943 0.58117 -0.78077
vn -0.22943 0.58117 -0.78077
vt 0 0
vt 1 0
vt 1 0
vt 0 0
vt 0 1
vt 1 1
vt 1 1
vt 0 1
vt 0.5 0.5
vt 1 0.5
vt 0.5 0.5
vt 0 0.5
vt 0.5 0
vt 0.5 1
f 86/86/152 85/85/152 97/97/152
f 87/87/153 86/86/153 97/97/153
f 88/88/154 87/87/154 97/97/154
f 85/85/155 88/88/155 97/97/155
f 86/86/156 87/87/156 94/94/156
f 87/87/157 91/91/157 94/94/157
f 91/91/158 90/90/158 94/94/158
f 90/90/159 86/86/159 94/94/159
f 85/85/160 86/86/160 93/93/160
f 86/86/161 90/90/161 93/93/161
f 90/90/162 89/89/162 93/93/162
f 89/89/163 85/85/163 93/93/163
f 88/88/164 85/85/164 96/96/164
f 85/85/165 89/89/165 96/96/165
f 89/89/166 92/92/166 96/96/166
f 92/92/167 88/88/167 96/96/167
f 89/89/168 90/90/168 98/98/168
f 90/90/169 91/91/169 98/98/169
f 91/91/170 92/92/170 98/98/170
f 92/92/171 89/89/171 98/98/171
f 87/87/172 88/88/172 95/95/172
f 88/88/173 92/92/173 95/95/173
f 92/92/174 91/91/174 95/95/174
f 91/91/175 87/87/175 95/95/175
g Cube_1_1
usemtl reds
v -4.99747 1.10663 0.11643
v -5.49361 1.46926 0.47201
v -5.74292 1.70418 -0.11541
v -5.24678 1.34154 -0.47099
v -5.41516 0.57129 0.0796
v -5.91129 0.93393 0.43519
v -6.1606 1.16884 -0.15223
v -5.66446 0.80621 -0.50782
v -5.45438 1.02028 0.27581
v -5.8271 1.31905 0.15989
v -5.70369 1.25519 -0.31161
v -5.33097 0.95642 -0.1957
v -5.3702 1.4054 0.00051
v -5.78788 0.87007 -0.03632
vn 1 0 0
vn 0.61424 0.78726 0.05415
vn 0.61424 0.78726 0.05415
vn 0.61424 0.78726 0.05415
vn 0.61424 0.78726 0.05415
vn -0.69879 0.51076 0.50082
vn -0.69879 0.51076 0.50082
vn -0.69879 0.51076 0.50082
vn -0.69879 0.51076 0.50082
vn 0.36662 -0.34547 0.86385
vn 0.36662 -0.34547 0.86385
vn 0.36662 -0.34547 0.86385
vn 0.36662 -0.34547 0.86385
vn 0.69879 -0.51076 -0.50082
vn 0.69879 -0.51076 -0.50082
vn 0.69879 -0.51076 -0.50082
vn 0.69879 -0.51076 -0.50082
vn -0.61424 -0.78726 -0.05415
vn -0.61424 -0.78726 -0.05415
vn -0.61424 -0.78726 -0.05415
vn -0.61424 -0.78726 -0.05415
vn -0.36662 0.34547 -0.86385
vn -0.36662 0.34547 -0.86385
vn -0.36662 0.34547 -0.86385
vn -0.36662 0.34547 -0.86385
vt 0 0
vt 1 0
vt 1 0
vt 0 0
vt 0 1
vt 1 1
vt 1 1
vt 0 1
vt 0.5 0.5
vt 1 0.5
vt 0.5 0.5
vt 0 0.5
vt 0.5 0
vt 0.5 1
f 100/100/177 99/99/177 111/111/177
f 101/101/178 100/100/178 111/111/178
f 102/102/179 101/101/179 111/111/179
f 99/99/180 102/102/180 111/111/180
f 100/100/181 101/101/181 108/108/181
f 101/101/182 105/105/182 108/108/182
f 105/105/183 104/104/183 108/108/183
f 104/104/184 100/100/184 108/108/184
f 99/99/185 100/100/185 107/107/185
f 100/100/186 104/104/186 107/107/186
f 104/104/187 103/103/187 107/107/187
f 103/103/188 99/99/188 107/107/188
f 102/102/189 99/99/189 110/110/189
f 99/99/190 103/103/190 110/110/190
f 103/103/191 106/106/191 110/110/191
f 106/106/192 102/102/192 110/110/192
f 103/103/193 104/104/193 112/112/193
f 104/104/194 105/105/194 112/112/194
f 105/105/195 106/106/195 112/112/195
f 106/106/196 103/103/196 112/112/196
f 101/101/197 102/102/197 109/109/197
f 102/102/198 106/106/198 109/109/198
f 106/106/199 105/105/199 109/109/199
f 105/105/200 101/101/200 109/109/200
g Cube_1_2
usemtl water
v -5.66734 2.97803 -0.47915
v -5.13422 2.94859 -0.01115
v -5.04966 3.62114 -0.06517
v -5.58278 3.65058 -0.53317
v -6.10841 3.07433 0.02936
v -5.5753 3.04489 0.49736
v -5.49073 3.71744 0.44334
v -6.02385 3.74688 -0.02466
v -5.62132 3.01146 0.00911
v -5.31248 3.33301 0.21609
v -5.53675 3.68401 -0.04491
v -5.84559 3.36246 -0.2519
v -5.3585 3.29958 -0.27216
v -5.79957 3.39589 0.23635
vn 1 0 0
vn 0.64864 -0.14162 -0.7478
vn 0.64864 -0.14162 -0.7478
vn 0.64864 -0.14162 -0.7478
vn 0.64864 -0.14162 -0.7478
vn 0.75087 -0.04147 0.65915
vn 0.75087 -0.04147 0.65915
vn 0.75087 -0.04147 0.65915
vn 0.75087 -0.04147 0.65915
vn -0.12436 -0.98905 0.07944
vn -0.12436 -0.98905 0.07944
vn -0.12436 -0.98905 0.07944
vn -0.12436 -0.98905 0.07944
vn -0.75087 0.04147 -0.65915
vn -0.75087 0.04147 -0.65915
vn -0.75087 0.04147 -0.65915
vn -0.75087 0.04147 -0.65915
vn -0.64864 0.14162 0.7478
vn -0.64864 0.14162 0.7478
vn -0.64864 0.14162 0.7478
vn -0.64864 0.14162 0.7478
vn 0.12436 0.98905 -0.07944
vn 0.12436 0.98905 -0.07944
vn 0.12436 0.98905 -0.07944
vn 0.12436 0.98905 -0.07944
vt 0 0
vt 1 0
vt 1 0
vt 0 0
vt 0 1
vt 1 1
vt 1 1
vt 0 1
vt 0.5 0.5
vt 1 0.5
vt 0.5 0.5
vt 0 0.5
vt 0.5 0
vt 0.5 1
f 114/114/202 113/113/202 125/125/202
f 115/115/203 114/114/203 125/125/203
f 116/116/204 115/115/204 125/125/204
f 113/113/205 116/116/205 125/125/205
f 114/114/206 115/115/206 122/122/206
f 115/115/207 119/119/207 122/122/207
f 119/119/208 118/118/208 122/122/208
f 118/118/209 114/114/209 122/122/209
f 113/113/210 114/114/210 121/121/210
f 114/114/211 118/118/211 121/121/211
f 118/118/212 117/117/212 121/121/212
f 117/117/213 113/113/213 121/121/213
f 116/116/214 113/113/214 124/124/214
f 113/113/215 117/117/215 124/124/215
f 117/117/216 120/120/216 124/124/216
f 120/120/217 116/116/217 124/124/217
f 117/117/218 118/118/218 126/126/218
f 118/118/219 119/119/219 126/126/219
f 119/119/220 120/120/220 126/126/220
f 120/120/221 117/117/221 126/126/221
f 115/115/222 116/116/222 123/123/222
f 116/116/223 120/120/223 123/123/223
f 120/120/224 119/119/224 123/123/224
f 119/119/225 115/115/225 123/123/225
g Cube_2_2
usemtl wood_floor
v -3.5134 2.77434 -0.43074
v -3.03613 2.75677 0.19856
v -2.78289 3.41908 0.02499
v -3.26016 3.43664 -0.60431
v -4.03711 3.08092 -0.02499
v -3.55984 3.06336 0.60431
v -3.3066 3.72566 0.43074
v -3.78387 3.74323 -0.19856
v -3.53662 2.91885 0.08679
v -3.17137 3.24122 0.31465
v -3.28338 3.58115 -0.08679
v -3.64863 3.25878 -0.31465
v -3.14814 3.09671 -0.20288
v -3.67186 3.40329 0.20288
vn 1 0 0
vn 0.71741 -0.41998 -0.55582
vn 0.71741 -0.41998 -0.55582
vn 0.71741 -0.41998 -0.55582
vn 0.71741 -0.41998 -0.55582
vn 0.60413 -0.02224 0.79657
vn 0.60413 -0.02224 0.79657
vn 0.60413 -0.02224 0.79657
vn 0.60413 -0.02224 0.79657
vn -0.3469 -0.90726 0.23777
vn -0.3469 -0.90726 0.23777
vn -0.3469 -0.90726 0.23777
vn -0.3469 -0.90726 0.23777
vn -0.60413 0.02224 -0.79657
vn -0.60413 0.02224 -0.79657
vn -0.60413 0.02224 -0.79657
vn -0.60413 0.02224 -0.79657
vn -0.71741 0.41998 0.55582
vn -0.71741 0.41998 0.55582
vn -0.71741 0.41998 0.55582
vn -0.71741 0.41998 0.55582
vn 0.3469 0.90726 -0.23777
vn 0.3469 0.90726 -0.23777
vn 0.3469 0.90726 -0.23777
vn 0.3469 0.90726 -0.23777
vt 0 0
vt 1 0
vt 1 0
vt 0 0
vt 0 1
vt 1 1
vt 1 1
vt 0 1
vt 0.5 0.5
vt 1 0.5
vt 0.5 0.5
vt 0 0.5
vt 0.5 0
vt 0.5 1
f 128/128/227 127/127/227 139/139/227
f 129/129/228 128/128/228 139/139/228
f 130/130/229 129/129/229 139/139/229
f 127/127/230 130/130/230 139/139/230
f 128/128/231 129/129/231 136/136/231
f 129/129/232 133/133/232 136/136/232
f 133/133/233 132/132/233 136/136/233
f 132/132/234 128/128/234 136/136/234
f 127/127/235 128/128/235 135/135/235
f 128/128/236 132/132/236 135/135/236
f 132/132/237 131/131/237 135/135/237
f 131/131/238 127/127/238 135/135/238
f 130/130/239 127/127/239 138/138/239
f 127/127/240 131/131/240 138/138/240
f 131/131/241 134/134/241 138/138/241
f 134/134/242 130/130/242 138/138/242
f 131/131/243 132/132/243 140/140/243
f 132/132/244 133/133/244 140/140/244
f 133/133/245 134/134/245 140/140/245
f 134/134/246 131/131/246 140/140/246
f 129/129/247 130/130/247 137/137/247
f 130/130/248 134/134/248 137/137/248
f 134/134/249 133/133/249 137/137/249
f 133/133/250 129/129/250 137/137/250
g Cube_2_3
usemtl creeper
v 0.83176 2.83302 0.44711
v 0.73161 2.82514 -0.33648
v 0.83098 3.54807 -0.35645
v 0.93113 3.55595 0.42714
v 1.54902 2.73193 0.35645
v 1.44887 2.72405 -0.42714
v 1.54824 3.44698 -0.44711
v 1.64839 3.45486 0.33648
v 1.14032 2.77854 0.00998
v 1.13993 3.13606 -0.39179
v 1.23968 3.50146 -0.00998
v 1.24007 3.14394 0.39179
v 0.83137 3.19055 0.04533
v 1.54863 3.08945 -0.04533
vn 1 0 0
vn -0.98255 0.13848 0.12418
vn -0.98255 0.13848 0.12418
vn -0.98255 0.13848 0.12418
vn -0.98255 0.13848 0.12418
vn -0.12677 -0.00997 -0.99188
vn -0.12677 -0.00997 -0.99188
vn -0.12677 -0.00997 -0.99188
vn -0.12677 -0.00997 -0.99188
vn -0.13612 -0.99031 0.02736
vn -0.13612 -0.99031 0.02736
vn -0.13612 -0.99031 0.02736
vn -0.13612 -0.99031 0.02736
vn 0.12677 0.00997 0.99188
vn 0.12677 0.00997 0.99188
vn 0.12677 0.00997 0.99188
vn 0.12677 0.00997 0.99188
vn 0.98255 -0.13848 -0.12418
vn 0.98255 -0.13848 -0.12418
vn 0.98255 -0.13848 -0.12418
vn 0.98255 -0.13848 -0.12418
vn 0.13612 0.99031 -0.02736
vn 0.13612 0.99031 -0.02736
vn 0.13612 0.99031 -0.02736
vn 0.13612 0.99031 -0.02736
vt 0 0
vt 1 0
vt 1 0
vt 0 0
vt 0 1
vt 1 1
vt 1 1
vt 0 1
vt 0.5 0.5
vt 1 0.5
vt 0.5 0.5
vt 0 0.5
vt 0.5 0
vt 0.5 1
f 142/142/252 141/141/252 153/153/252
f 143/143/253 142/142/253 153/153/253
f 144/144/254 143/143/254 153/153/254
f 141/141/255 144/144/255 153/153/255
f 142/142/256 143/143/256 150/150/256
f 143/143/257 147/147/257 150/150/257
f 147/147/258 146/146/258 150/150/258
f 146/146/259 142/142/259 150/150/259
f 141/141/260 142/142/260 149/149/260
f 142/142/261 146/146/261 149/149/261
f 146/146/262 145/145/262 149/149/262
f 145/145/263 141/141/263 149/149/263
f 144/144/264 141/141/264 152/152/264
f 141/141/265 145/145/265 152/152/265
f 145/145/266 148/148/266 152/152/266
f 148/148/267 144/144/267 152/152/267
f 145/145/268 146/146/268 154/154/268
f 146/146/269 147/147/269 154/154/269
f 147/147/270 148/148/270 154/154/270
f 148/148/271 145/145/271 154/154/271
f 143/143/272 144/144/272 151/151/272
f 144/144/273 148/148/273 151/151/273
f 148/148/274 147/147/274 151/151/274
f 147/147/275 143/143/275 151/151/275
g Cube_1_3
usemtl cheetah
v -1.30385 3.03618 0.44155
v -1.51798 3.0944 -0.23288
v -1.23989 3.71395 -0.2677
v -1.02575 3.65574 0.40673
v -0.71818 2.76152 0.23189
v -0.93232 2.81973 -0.44254
v -0.65422 3.43929 -0.47736
v -0.44009 3.38107 0.19707
v -1.11808 2.92796 -0.0005
v -1.0861 3.26684 -0.35512
v -0.83999 3.54751 -0.03531
v -0.87197 3.20863 0.31931
v -1.27187 3.37507 0.08693
v -0.6862 3.1004 -0.12274
vn 1 0 0
vn -0.86127 0.40391 0.30833
vn -0.86127 0.40391 0.30833
vn -0.86127 0.40391 0.30833
vn -0.86127 0.40391 0.30833
vn -0.3016 0.082 -0.9499
vn -0.3016 0.082 -0.9499
vn -0.3016 0.082 -0.9499
vn -0.3016 0.082 -0.9499
vn -0.40896 -0.91111 0.0512
vn -0.40896 -0.91111 0.0512
vn -0.40896 -0.91111 0.0512
vn -0.40896 -0.91111 0.0512
vn 0.3016 -0.082 0.9499
vn 0.3016 -0.082 0.9499
vn 0.3016 -0.082 0.9499
vn 0.3016 -0.082 0.9499
vn 0.86127 -0.40391 -0.30833
vn 0.86127 -0.40391 -0.30833
vn 0.86127 -0.40391 -0.30833
vn 0.86127 -0.40391 -0.30833
vn 0.40896 0.91111 -0.0512
vn 0.40896 0.91111 -0.0512
vn 0.40896 0.91111 -0.0512
vn 0.40896 0.91111 -0.0512
vt 0 0
vt 1 0
vt 1 0
vt 0 0
vt 0 1
vt 1 1
vt 1 1
vt 0 1
vt 0.5 0.5
vt 1 0.5
vt 0.5 0.5
vt 0 0.5
vt 0.5 0
vt 0.5 1
f 156/156/277 155/155/277 167/167/277
f 157/157/278 156/156/278 167/167/278
f 158/158/279 157/157/279 167/167/279
f 155/155/280 158/158/280 167/167/280
f 156/156/281 157/157/281 164/164/281
f 157/157/282 161/161/282 164/164/282
f 161/161/283 160/160/283 164/164/283
f 160/160/284 156/156/284 164/164/284
f 155/155/285 156/156/285 163/163/285
f 156/156/286 160/160/286 163/163/286
f 160/160/287 159/159/287 163/163/287
f 159/159/288 155/155/288 163/163/288
f 158/158/289 155/155/289 166/166/289
f 155/155/290 159/159/290 166/166/290
f 159/159/291 162/162/291 166/166/291
f 162/162/292 158/158/292 166/166/292
f 159/159/293 160/160/293 168/168/293
f 160/160/294 161/161/294 168/168/294
f 161/161/295 162/162/295 168/168/295
f 162/162/296 159/159/296 168/168/296
f 157/157/297 158/158/297 165/165/297
f 158/158/298 162/162/298 165/165/298
f 162/162/299 161/161/299 165/165/299
f 161/161/300 157/157/300 165/165/300
